HIERARCHY
ROOT Hips
{
    OFFSET 0.000 95.729 0.000
    CHANNELS 6 Xposition Yposition Zposition Yrotation Xrotation Zrotation
    JOINT RightUpLeg
    {
        OFFSET -9.625 -1.639 0.000
        CHANNELS 6 Xposition Yposition Zposition Yrotation Xrotation Zrotation
        JOINT RightLeg
        {
            OFFSET 0.000 -41.481 0.000
            CHANNELS 6 Xposition Yposition Zposition Yrotation Xrotation Zrotation
            JOINT RightFoot
            {
                OFFSET 0.000 -43.120 0.000
                CHANNELS 6 Xposition Yposition Zposition Yrotation Xrotation Zrotation
                End Site
                {
                    OFFSET 0.000 -7.850 17.850
                }
            }
        }
    }
    JOINT LeftUpLeg
    {
        OFFSET 9.625 -1.639 0.000
        CHANNELS 6 Xposition Yposition Zposition Yrotation Xrotation Zrotation
        JOINT LeftLeg
        {
            OFFSET 0.000 -43.120 0.000
            CHANNELS 6 Xposition Yposition Zposition Yrotation Xrotation Zrotation
            JOINT LeftFoot
            {
                OFFSET 0.000 -43.120 0.000
                CHANNELS 6 Xposition Yposition Zposition Yrotation Xrotation Zrotation
                End Site
                {
                    OFFSET 0.000 -7.850 17.850
                }
            }
        }
    }
    JOINT Spine
    {
        OFFSET 0.000 16.395 0.000
        CHANNELS 6 Xposition Yposition Zposition Yrotation Xrotation Zrotation
        JOINT Spine1
        {
            OFFSET 0.000 10.023 0.000
            CHANNELS 6 Xposition Yposition Zposition Yrotation Xrotation Zrotation
            JOINT Spine2
            {
                OFFSET 0.000 10.437 0.000
                CHANNELS 6 Xposition Yposition Zposition Yrotation Xrotation Zrotation
                JOINT Spine3
                {
                    OFFSET 0.000 10.023 0.000
                    CHANNELS 6 Xposition Yposition Zposition Yrotation Xrotation Zrotation
                    JOINT Neck
                    {
                        OFFSET 0.000 10.713 0.000
                        CHANNELS 6 Xposition Yposition Zposition Yrotation Xrotation Zrotation
                        JOINT Head
                        {
                            OFFSET 0.000 9.720 0.000
                            CHANNELS 6 Xposition Yposition Zposition Yrotation Xrotation Zrotation
                            End Site
                            {
                                OFFSET 0.000 16.450 0.000
                            }
                        }
                    }
                    JOINT RightShoulder
                    {
                        OFFSET -3.275 7.142 0.000
                        CHANNELS 6 Xposition Yposition Zposition Yrotation Xrotation Zrotation
                        JOINT RightArm
                        {
                            OFFSET -13.100 0.000 0.000
                            CHANNELS 6 Xposition Yposition Zposition Yrotation Xrotation Zrotation
                            JOINT RightForeArm
                            {
                                OFFSET -27.250 0.000 0.000
                                CHANNELS 6 Xposition Yposition Zposition Yrotation Xrotation Zrotation
                                JOINT RightHand
                                {
                                    OFFSET -26.750 0.000 0.000
                                    CHANNELS 6 Xposition Yposition Zposition Yrotation Xrotation Zrotation
                                    JOINT RightHandThumb1
                                    {
                                        OFFSET -2.560 0.196 3.210
                                        CHANNELS 6 Xposition Yposition Zposition Yrotation Xrotation Zrotation
                                        JOINT RightHandThumb2
                                        {
                                            OFFSET -3.788 0.000 0.000
                                            CHANNELS 6 Xposition Yposition Zposition Yrotation Xrotation Zrotation
                                            JOINT RightHandThumb3
                                            {
                                                OFFSET -2.631 0.000 0.000
                                                CHANNELS 6 Xposition Yposition Zposition Yrotation Xrotation Zrotation
                                                End Site
                                                {
                                                    OFFSET -2.256 0.000 0.000
                                                }
                                            }
                                        }
                                    }
                                    JOINT RightInHandIndex
                                    {
                                        OFFSET -3.316 0.523 2.035
                                        CHANNELS 6 Xposition Yposition Zposition Yrotation Xrotation Zrotation
                                        JOINT RightHandIndex1
                                        {
                                            OFFSET -5.366 -0.094 1.028
                                            CHANNELS 6 Xposition Yposition Zposition Yrotation Xrotation Zrotation
                                            JOINT RightHandIndex2
                                            {
                                                OFFSET -3.723 0.000 0.000
                                                CHANNELS 6 Xposition Yposition Zposition Yrotation Xrotation Zrotation
                                                JOINT RightHandIndex3
                                                {
                                                    OFFSET -2.111 0.000 0.000
                                                    CHANNELS 6 Xposition Yposition Zposition Yrotation Xrotation Zrotation
                                                    End Site
                                                    {
                                                        OFFSET -1.857 0.000 0.000
                                                    }
                                                }
                                            }
                                        }
                                    }
                                    JOINT RightInHandMiddle
                                    {
                                        OFFSET -3.479 0.532 0.778
                                        CHANNELS 6 Xposition Yposition Zposition Yrotation Xrotation Zrotation
                                        JOINT RightHandMiddle1
                                        {
                                            OFFSET -5.322 -0.086 0.323
                                            CHANNELS 6 Xposition Yposition Zposition Yrotation Xrotation Zrotation
                                            JOINT RightHandMiddle2
                                            {
                                                OFFSET -4.062 0.000 0.000
                                                CHANNELS 6 Xposition Yposition Zposition Yrotation Xrotation Zrotation
                                                JOINT RightHandMiddle3
                                                {
                                                    OFFSET -2.547 0.000 0.000
                                                    CHANNELS 6 Xposition Yposition Zposition Yrotation Xrotation Zrotation
                                                    End Site
                                                    {
                                                        OFFSET -2.031 0.000 0.000
                                                    }
                                                }
                                            }
                                        }
                                    }
                                    JOINT RightInHandRing
                                    {
                                        OFFSET -3.461 0.553 -0.133
                                        CHANNELS 6 Xposition Yposition Zposition Yrotation Xrotation Zrotation
                                        JOINT RightHandRing1
                                        {
                                            OFFSET -4.767 -0.023 -0.493
                                            CHANNELS 6 Xposition Yposition Zposition Yrotation Xrotation Zrotation
                                            JOINT RightHandRing2
                                            {
                                                OFFSET -3.541 0.000 0.000
                                                CHANNELS 6 Xposition Yposition Zposition Yrotation Xrotation Zrotation
                                                JOINT RightHandRing3
                                                {
                                                    OFFSET -2.456 0.000 0.000
                                                    CHANNELS 6 Xposition Yposition Zposition Yrotation Xrotation Zrotation
                                                    End Site
                                                    {
                                                        OFFSET -1.910 0.000 0.000
                                                    }
                                                }
                                            }
                                        }
                                    }
                                    JOINT RightInHandPinky
                                    {
                                        OFFSET -3.251 0.483 -1.236
                                        CHANNELS 6 Xposition Yposition Zposition Yrotation Xrotation Zrotation
                                        JOINT RightHandPinky1
                                        {
                                            OFFSET -4.259 -0.023 -1.122
                                            CHANNELS 6 Xposition Yposition Zposition Yrotation Xrotation Zrotation
                                            JOINT RightHandPinky2
                                            {
                                                OFFSET -2.835 0.000 0.000
                                                CHANNELS 6 Xposition Yposition Zposition Yrotation Xrotation Zrotation
                                                JOINT RightHandPinky3
                                                {
                                                    OFFSET -1.792 0.000 0.000
                                                    CHANNELS 6 Xposition Yposition Zposition Yrotation Xrotation Zrotation
                                                    End Site
                                                    {
                                                        OFFSET -1.692 0.000 0.000
                                                    }
                                                }
                                            }
                                        }
                                    }
                                }
                            }
                        }
                    }
                    JOINT LeftShoulder
                    {
                        OFFSET 3.275 7.142 0.000
                        CHANNELS 6 Xposition Yposition Zposition Yrotation Xrotation Zrotation
                        JOINT LeftArm
                        {
                            OFFSET 13.100 0.000 0.000
                            CHANNELS 6 Xposition Yposition Zposition Yrotation Xrotation Zrotation
                            JOINT LeftForeArm
                            {
                                OFFSET 27.250 0.000 0.000
                                CHANNELS 6 Xposition Yposition Zposition Yrotation Xrotation Zrotation
                                JOINT LeftHand
                                {
                                    OFFSET 26.750 0.000 0.000
                                    CHANNELS 6 Xposition Yposition Zposition Yrotation Xrotation Zrotation
                                    JOINT LeftHandThumb1
                                    {
                                        OFFSET 2.560 0.196 3.210
                                        CHANNELS 6 Xposition Yposition Zposition Yrotation Xrotation Zrotation
                                        JOINT LeftHandThumb2
                                        {
                                            OFFSET 3.788 0.000 0.000
                                            CHANNELS 6 Xposition Yposition Zposition Yrotation Xrotation Zrotation
                                            JOINT LeftHandThumb3
                                            {
                                                OFFSET 2.631 0.000 0.000
                                                CHANNELS 6 Xposition Yposition Zposition Yrotation Xrotation Zrotation
                                                End Site
                                                {
                                                    OFFSET 2.256 0.000 0.000
                                                }
                                            }
                                        }
                                    }
                                    JOINT LeftInHandIndex
                                    {
                                        OFFSET 3.316 0.523 2.035
                                        CHANNELS 6 Xposition Yposition Zposition Yrotation Xrotation Zrotation
                                        JOINT LeftHandIndex1
                                        {
                                            OFFSET 5.366 -0.094 1.028
                                            CHANNELS 6 Xposition Yposition Zposition Yrotation Xrotation Zrotation
                                            JOINT LeftHandIndex2
                                            {
                                                OFFSET 3.723 0.000 0.000
                                                CHANNELS 6 Xposition Yposition Zposition Yrotation Xrotation Zrotation
                                                JOINT LeftHandIndex3
                                                {
                                                    OFFSET 2.111 0.000 0.000
                                                    CHANNELS 6 Xposition Yposition Zposition Yrotation Xrotation Zrotation
                                                    End Site
                                                    {
                                                        OFFSET 1.857 0.000 0.000
                                                    }
                                                }
                                            }
                                        }
                                    }
                                    JOINT LeftInHandMiddle
                                    {
                                        OFFSET 3.479 0.532 0.778
                                        CHANNELS 6 Xposition Yposition Zposition Yrotation Xrotation Zrotation
                                        JOINT LeftHandMiddle1
                                        {
                                            OFFSET 5.322 -0.086 0.323
                                            CHANNELS 6 Xposition Yposition Zposition Yrotation Xrotation Zrotation
                                            JOINT LeftHandMiddle2
                                            {
                                                OFFSET 4.062 0.000 0.000
                                                CHANNELS 6 Xposition Yposition Zposition Yrotation Xrotation Zrotation
                                                JOINT LeftHandMiddle3
                                                {
                                                    OFFSET 2.547 0.000 0.000
                                                    CHANNELS 6 Xposition Yposition Zposition Yrotation Xrotation Zrotation
                                                    End Site
                                                    {
                                                        OFFSET 2.031 0.000 0.000
                                                    }
                                                }
                                            }
                                        }
                                    }
                                    JOINT LeftInHandRing
                                    {
                                        OFFSET 3.461 0.553 -0.133
                                        CHANNELS 6 Xposition Yposition Zposition Yrotation Xrotation Zrotation
                                        JOINT LeftHandRing1
                                        {
                                            OFFSET 4.767 -0.023 -0.493
                                            CHANNELS 6 Xposition Yposition Zposition Yrotation Xrotation Zrotation
                                            JOINT LeftHandRing2
                                            {
                                                OFFSET 3.541 0.000 0.000
                                                CHANNELS 6 Xposition Yposition Zposition Yrotation Xrotation Zrotation
                                                JOINT LeftHandRing3
                                                {
                                                    OFFSET 2.456 0.000 0.000
                                                    CHANNELS 6 Xposition Yposition Zposition Yrotation Xrotation Zrotation
                                                    End Site
                                                    {
                                                        OFFSET 1.910 0.000 0.000
                                                    }
                                                }
                                            }
                                        }
                                    }
                                    JOINT LeftInHandPinky
                                    {
                                        OFFSET 3.251 0.483 -1.236
                                        CHANNELS 6 Xposition Yposition Zposition Yrotation Xrotation Zrotation
                                        JOINT LeftHandPinky1
                                        {
                                            OFFSET 4.259 -0.023 -1.122
                                            CHANNELS 6 Xposition Yposition Zposition Yrotation Xrotation Zrotation
                                            JOINT LeftHandPinky2
                                            {
                                                OFFSET 2.835 0.000 0.000
                                                CHANNELS 6 Xposition Yposition Zposition Yrotation Xrotation Zrotation
                                                JOINT LeftHandPinky3
                                                {
                                                    OFFSET 1.792 0.000 0.000
                                                    CHANNELS 6 Xposition Yposition Zposition Yrotation Xrotation Zrotation
                                                    End Site
                                                    {
                                                        OFFSET 1.692 0.000 0.000
                                                    }
                                                }
                                            }
                                        }
                                    }
                                }
                            }
                        }
                    }
                }
            }
        }
    }
}
MOTION

Frames: 2
Frame Time: 0.017
3.22 97.08 30.30 0.41 2.20 -0.55 -9.58 -1.62 -0.18 -5.52 -1.09 -0.69 0.13 -41.48 0.03 -4.95 -0.08 -0.69 -0.16 -43.24 -0.22 20.98 -2.15 5.66 9.69 -1.66 0.11 -2.18 -0.26 0.42 0.10 -43.12 -0.02 3.01 -2.38 1.10 0.11 -43.04 -0.31 -63.58 1.06 -0.98 0.03 16.40 0.01 8.98 9.88 7.95 -0.03 10.01 0.04 2.34 2.44 1.84 -0.07 10.44 0.08 4.07 3.81 3.08 -0.06 10.02 0.08 -0.66 0.61 0.14 -0.00 10.71 0.11 -0.67 0.61 0.14 0.07 9.73 0.13 -12.01 11.47 1.40 -3.30 6.84 0.14 -3.35 -2.44 1.68 -12.68 -0.10 0.84 36.87 -11.23 56.62 -27.66 -0.08 0.52 35.86 68.78 -4.16 -26.76 -0.43 -0.14 11.27 18.99 -14.57 -2.56 0.20 3.21 37.03 -0.00 59.48 -3.79 0.00 0.00 -12.84 -0.00 12.02 -2.63 0.00 0.00 -12.87 -0.00 0.00 -3.32 0.52 2.03 0.00 -0.00 0.00 -5.37 -0.09 1.03 15.00 -0.00 32.10 -3.72 0.00 0.00 0.00 -0.00 -5.99 -2.11 0.00 0.00 0.00 -0.00 -3.00 -3.48 0.53 0.78 0.00 -0.00 0.00 -5.32 -0.09 0.32 0.00 -0.00 22.49 -4.06 0.00 0.00 0.00 -0.00 22.49 -2.55 0.00 0.00 0.00 -0.00 22.49 -3.46 0.55 -0.13 0.00 -0.00 0.00 -4.77 -0.02 -0.49 -15.00 -0.00 49.94 -3.54 0.00 0.00 0.00 -0.00 49.94 -2.46 0.00 0.00 0.00 -0.00 49.94 -3.25 0.48 -1.24 0.00 -0.00 0.00 -4.26 -0.02 -1.12 -25.00 -0.00 90.46 -2.84 0.00 0.00 0.00 -0.00 90.46 -1.79 0.00 0.00 0.00 -0.00 90.46 3.26 7.15 0.01 -7.20 1.20 -13.01 13.16 -0.03 -0.16 -34.82 -11.65 -73.02 27.26 -0.03 -0.16 -39.56 44.40 -2.50 26.76 -0.06 -0.02 9.52 -3.08 16.29 2.56 0.20 3.21 -58.41 -0.00 -61.20 3.79 0.00 0.00 13.60 -0.00 -23.80 2.63 0.00 0.00 52.14 -0.00 0.00 3.32 0.52 2.03 0.00 -0.00 0.00 5.37 -0.09 1.03 -15.00 -0.00 -7.91 3.72 0.00 0.00 0.00 -0.00 -25.88 2.11 0.00 0.00 0.00 -0.00 -12.94 3.48 0.53 0.78 0.00 -0.00 0.00 5.32 -0.09 0.32 0.00 -0.00 -28.50 4.06 0.00 0.00 0.00 -0.00 -28.50 2.55 0.00 0.00 0.00 -0.00 -28.50 3.46 0.55 -0.13 0.00 -0.00 0.00 4.77 -0.02 -0.49 15.00 -0.00 -45.21 3.54 0.00 0.00 0.00 -0.00 -45.21 2.46 0.00 0.00 0.00 -0.00 -45.21 3.25 0.48 -1.24 0.00 -0.00 0.00 4.26 -0.02 -1.12 25.00 -0.00 -44.84 2.84 0.00 0.00 0.00 -0.00 -44.84 1.79 0.00 0.00 0.00 -0.00 -44.84 
3.18 97.08 30.32 0.16 2.20 -0.56 -9.60 -1.62 -0.15 -5.46 -1.04 -0.65 0.11 -41.48 0.04 -4.82 -0.18 -0.67 -0.14 -43.24 -0.23 21.05 -2.09 5.62 9.68 -1.65 0.10 -2.14 -0.26 0.45 0.10 -43.12 -0.01 3.11 -2.33 1.08 0.14 -43.04 -0.31 -63.47 1.03 -0.94 0.02 16.40 0.01 9.14 9.92 8.00 -0.03 10.01 0.03 2.38 2.45 1.85 -0.06 10.44 0.07 4.14 3.82 3.09 -0.05 10.02 0.07 -0.65 0.61 0.13 0.00 10.71 0.10 -0.66 0.62 0.13 0.07 9.73 0.12 -11.82 11.53 1.33 -3.29 6.88 0.14 -3.40 -2.79 2.03 -12.73 -0.09 0.74 37.70 -11.49 56.29 -27.61 -0.09 0.45 33.61 68.19 -4.61 -26.76 -0.38 -0.11 10.90 19.07 -15.47 -2.56 0.20 3.21 36.75 -0.00 59.46 -3.79 0.00 0.00 -13.39 -0.00 12.00 -2.63 0.00 0.00 -12.44 -0.00 0.00 -3.32 0.52 2.03 0.00 -0.00 0.00 -5.37 -0.09 1.03 15.00 -0.00 31.63 -3.72 0.00 0.00 0.00 -0.00 -6.12 -2.11 0.00 0.00 0.00 -0.00 -3.06 -3.48 0.53 0.78 0.00 -0.00 0.00 -5.32 -0.09 0.32 0.00 -0.00 22.42 -4.06 0.00 0.00 0.00 -0.00 22.42 -2.55 0.00 0.00 0.00 -0.00 22.42 -3.46 0.55 -0.13 0.00 -0.00 0.00 -4.77 -0.02 -0.49 -15.00 -0.00 49.97 -3.54 0.00 0.00 0.00 -0.00 49.97 -2.46 0.00 0.00 0.00 -0.00 49.97 -3.25 0.48 -1.24 0.00 -0.00 0.00 -4.26 -0.02 -1.12 -25.00 -0.00 91.60 -2.84 0.00 0.00 0.00 -0.00 91.60 -1.79 0.00 0.00 0.00 -0.00 91.60 3.27 7.15 0.01 -7.21 1.18 -13.01 13.15 -0.03 -0.14 -34.93 -11.57 -73.02 27.26 -0.02 -0.14 -39.64 44.34 -2.46 26.76 -0.05 -0.02 9.53 -3.06 16.29 2.56 0.20 3.21 -58.40 -0.00 -61.14 3.79 0.00 0.00 13.61 -0.00 -23.75 2.63 0.00 0.00 51.93 -0.00 0.00 3.32 0.52 2.03 0.00 -0.00 0.00 5.37 -0.09 1.03 -15.00 -0.00 -7.89 3.72 0.00 0.00 0.00 -0.00 -25.93 2.11 0.00 0.00 0.00 -0.00 -12.97 3.48 0.53 0.78 0.00 -0.00 0.00 5.32 -0.09 0.32 0.00 -0.00 -28.51 4.06 0.00 0.00 0.00 -0.00 -28.51 2.55 0.00 0.00 0.00 -0.00 -28.51 3.46 0.55 -0.13 0.00 -0.00 0.00 4.77 -0.02 -0.49 15.00 -0.00 -45.23 3.54 0.00 0.00 0.00 -0.00 -45.23 2.46 0.00 0.00 0.00 -0.00 -45.23 3.25 0.48 -1.24 0.00 -0.00 0.00 4.26 -0.02 -1.12 25.00 -0.00 -44.82 2.84 0.00 0.00 0.00 -0.00 -44.82 1.79 0.00 0.00 0.00 -0.00 -44.82 
